<svg xmlns="http://www.w3.org/2000/svg" xmlns:xlink="http://www.w3.org/1999/xlink" version="1.1" x="0px" y="0px" viewBox="0 0 59.96 50.05" enable-background="new 0 0 59.96 40.04" xml:space="preserve"><g><path d="M46.99,19.12v-1.09c0-0.55-0.45-1-1-1s-1,0.45-1,1v1.09c-0.91,0.15-1.75,0.51-2.47,1.02l-0.77-0.77   c-0.39-0.39-1.02-0.39-1.41,0c-0.39,0.39-0.39,1.02,0,1.41l0.77,0.77c-0.51,0.72-0.87,1.56-1.02,2.47h-1.09c-0.55,0-1,0.45-1,1   s0.45,1,1,1h1.09c0.15,0.91,0.51,1.75,1.02,2.47l-0.77,0.77c-0.39,0.39-0.39,1.02,0,1.41c0.2,0.2,0.45,0.29,0.71,0.29   s0.51-0.1,0.71-0.29l0.77-0.77c0.72,0.51,1.56,0.87,2.47,1.02v1.09c0,0.55,0.45,1,1,1s1-0.45,1-1v-1.09   c0.91-0.15,1.75-0.51,2.47-1.02l0.77,0.77c0.2,0.2,0.45,0.29,0.71,0.29s0.51-0.1,0.71-0.29c0.39-0.39,0.39-1.02,0-1.41l-0.77-0.77   c0.51-0.72,0.87-1.56,1.02-2.47h1.09c0.55,0,1-0.45,1-1s-0.45-1-1-1H51.9c-0.15-0.91-0.51-1.75-1.02-2.47l0.77-0.77   c0.39-0.39,0.39-1.02,0-1.41c-0.39-0.39-1.02-0.39-1.41,0l-0.77,0.77C48.74,19.63,47.9,19.28,46.99,19.12z M45.99,29.03   c-2.21,0-4-1.79-4-4s1.79-4,4-4s4,1.79,4,4S48.2,29.03,45.99,29.03z"/><path d="M59.89,27.55L50.92,5.63c0,0,0,0,0,0l-1.99-4.96c-0.12-0.31-0.36-0.56-0.69-0.63c-0.33-0.07-0.63,0-0.87,0.23   c-0.1,0.07-2.66,1.77-17.38,1.77c-14.71,0-17.26-1.7-17.29-1.72c-0.24-0.23-0.58-0.33-0.9-0.26c-0.33,0.07-0.6,0.29-0.72,0.6   L9.07,5.63l0,0L0.07,27.58C0.02,27.7,0,27.84,0,27.97l0,0.24c0,0.15,0.04,0.29,0.1,0.42c0.54,1.09,5.64,10.68,18.98,11.4   c0.07,0,0.14,0,0.21,0c1.37,0,2.62-0.68,3.38-1.82l7.32-8.73l7.29,8.71c0.79,1.2,2.16,1.89,3.59,1.81   c13.34-0.72,18.44-10.31,18.98-11.4c0.07-0.13,0.1-0.28,0.1-0.43l0-0.24C59.96,27.81,59.94,27.68,59.89,27.55z M12.53,2.39   c1.89,0.69,6.49,1.64,17.46,1.64c10.98,0,15.58-0.95,17.48-1.64l1.26,3.15c-0.11,0.05-0.24,0.11-0.39,0.16   c-0.03,0.01-0.06,0.02-0.08,0.03C48.14,5.79,48,5.85,47.85,5.9c-0.03,0.01-0.05,0.02-0.08,0.03c-0.18,0.06-0.38,0.13-0.59,0.2   c-0.02,0.01-0.05,0.01-0.07,0.02c-0.19,0.06-0.39,0.12-0.6,0.18c-0.06,0.02-0.13,0.04-0.19,0.05c-0.21,0.06-0.43,0.12-0.67,0.18   c-0.05,0.01-0.1,0.03-0.15,0.04c-0.29,0.07-0.59,0.14-0.92,0.21c-0.07,0.02-0.15,0.03-0.22,0.05c-0.26,0.05-0.54,0.11-0.82,0.16   c-0.11,0.02-0.22,0.04-0.33,0.06c-0.32,0.06-0.66,0.11-1.01,0.17c-0.06,0.01-0.12,0.02-0.18,0.03c-0.41,0.06-0.85,0.12-1.3,0.18   c-0.13,0.02-0.26,0.03-0.39,0.05c-0.35,0.04-0.71,0.08-1.09,0.12c-0.15,0.02-0.3,0.03-0.46,0.05c-0.5,0.05-1.01,0.09-1.55,0.13   c-0.02,0-0.05,0-0.07,0.01c-0.45,0.03-0.94,0.06-1.42,0.09c-0.19-0.23-0.39-0.46-0.61-0.68c-1.36-1.36-3-2.17-4.4-2.17   c-0.18,0-0.36,0.02-0.53,0.04c-0.06,0.01-0.11,0.02-0.16,0.04c-0.11,0.02-0.22,0.05-0.33,0.09c-0.06,0.02-0.12,0.05-0.17,0.07   c-0.09,0.04-0.19,0.09-0.27,0.14c-0.05,0.03-0.11,0.06-0.16,0.1c-0.03,0.02-0.07,0.04-0.1,0.06c-0.01-0.01-0.03-0.01-0.04-0.02   c-0.45-0.31-0.99-0.47-1.61-0.47c-1.13,0-2.43,0.54-3.6,1.46c-0.02,0.02-0.05,0.04-0.07,0.05c-0.25,0.2-0.5,0.41-0.73,0.65   c0,0-0.01,0.01-0.01,0.01c-0.15,0.16-0.3,0.32-0.45,0.5c-0.4-0.03-0.8-0.06-1.17-0.09c-0.01,0-0.02,0-0.03,0   c-0.49-0.05-0.96-0.1-1.41-0.15c-0.12-0.01-0.23-0.03-0.35-0.04c-0.35-0.04-0.69-0.09-1.02-0.13c-0.09-0.01-0.19-0.03-0.28-0.04   c-0.4-0.06-0.78-0.12-1.14-0.18c-0.07-0.01-0.13-0.02-0.19-0.03c-0.3-0.05-0.59-0.11-0.86-0.16c-0.09-0.02-0.17-0.03-0.25-0.05   c-0.29-0.06-0.57-0.12-0.84-0.18c-0.02-0.01-0.05-0.01-0.07-0.02c-0.29-0.07-0.56-0.13-0.81-0.2C14,6.47,13.94,6.46,13.88,6.44   c-0.2-0.05-0.39-0.11-0.58-0.16c-0.04-0.01-0.09-0.03-0.14-0.04c-0.22-0.06-0.42-0.13-0.6-0.19c-0.01,0-0.03-0.01-0.04-0.01   c-0.17-0.06-0.33-0.11-0.47-0.17c-0.03-0.01-0.07-0.02-0.1-0.04c-0.14-0.05-0.28-0.11-0.39-0.15c0,0-0.01,0-0.01-0.01   c-0.11-0.05-0.2-0.09-0.29-0.13L12.53,2.39z M35.24,11.89c-0.01,0.03-0.01,0.06-0.02,0.08c-0.03,0.07-0.06,0.14-0.11,0.18   c-0.14,0.14-0.37,0.17-0.55,0.17c-0.65,0-1.82-0.41-2.99-1.58c-0.2-0.2-0.37-0.39-0.52-0.58c-0.03-0.04-0.05-0.08-0.08-0.12   c-0.4-0.53-0.64-1.01-0.77-1.36c0,0,0,0,0-0.01c-0.03-0.09-0.08-0.18-0.1-0.27c-0.03-0.11-0.05-0.22-0.07-0.32   c0.01-0.18,0.01-0.36-0.01-0.54c0-0.03,0.01-0.05,0.01-0.07c0.01-0.03,0.01-0.06,0.02-0.09c0.03-0.07,0.06-0.13,0.11-0.18   c0.14-0.14,0.37-0.17,0.55-0.17c0.65,0,1.82,0.41,2.99,1.58c0.14,0.14,0.26,0.29,0.39,0.43c0.11,0.14,0.22,0.28,0.34,0.45   c0,0,0,0,0,0c0.31,0.44,0.53,0.87,0.67,1.25c0.01,0.01,0.01,0.03,0.02,0.04c0.04,0.12,0.08,0.24,0.1,0.35c0,0.01,0,0.02,0.01,0.02   c0.02,0.1,0.03,0.19,0.04,0.27c0,0.05,0.01,0.09,0.01,0.13c0,0.05,0,0.11,0,0.15C35.27,11.78,35.26,11.83,35.24,11.89z M22.94,12.2   c-0.05-0.05-0.08-0.11-0.11-0.18c-0.01-0.04-0.02-0.09-0.03-0.13c-0.01-0.04-0.01-0.07-0.02-0.11c-0.01-0.07-0.01-0.14,0-0.21   c0-0.03,0.01-0.06,0.01-0.09c0.01-0.09,0.02-0.18,0.04-0.28c0-0.01,0.01-0.02,0.01-0.04c0.11-0.49,0.39-1.1,0.88-1.75c0,0,0,0,0,0   c0.09-0.12,0.18-0.22,0.26-0.33c0.12-0.14,0.23-0.28,0.37-0.41c1.17-1.17,2.34-1.58,2.99-1.58c0.17,0,0.41,0.03,0.55,0.17   c0.04,0.04,0.07,0.11,0.1,0.17c0.01,0.04,0.03,0.08,0.04,0.13c0,0.02,0.01,0.05,0.01,0.07c-0.01,0.15-0.02,0.3-0.01,0.46   C28,8.25,27.96,8.43,27.89,8.63c-0.01,0.02-0.02,0.04-0.03,0.06c-0.13,0.36-0.32,0.72-0.55,1.08c0,0.01-0.01,0.01-0.01,0.02   c-0.11,0.17-0.23,0.33-0.36,0.49c-0.14,0.17-0.29,0.34-0.46,0.51c-1.17,1.17-2.34,1.58-2.99,1.58   C23.31,12.37,23.07,12.34,22.94,12.2z M40.77,38.01l-0.11,0c-0.69,0-1.35-0.36-1.72-0.95c-0.02-0.04-0.05-0.07-0.08-0.1l-8-9.55   c-0.21-0.27-0.53-0.43-0.87-0.43c-0.3,0-0.64,0.17-0.85,0.4l0,0l-8.04,9.6c-0.03,0.03-0.05,0.07-0.08,0.11   c-0.37,0.59-1.03,0.95-1.73,0.95l-0.11,0c-11.41-0.62-16.18-8.21-17.14-10L10.5,7.41c0.02,0.01,0.05,0.02,0.08,0.03   c0.03,0.01,0.06,0.03,0.09,0.04c0.13,0.06,0.27,0.11,0.42,0.17c0.01,0.01,0.03,0.01,0.04,0.02c0.16,0.06,0.34,0.13,0.52,0.19   c0.05,0.02,0.1,0.04,0.16,0.05c0.19,0.07,0.4,0.13,0.62,0.2c0.02,0.01,0.05,0.02,0.08,0.02c0.2,0.06,0.42,0.12,0.65,0.19   c0.07,0.02,0.14,0.04,0.22,0.06c0.26,0.07,0.52,0.14,0.81,0.2c0.05,0.01,0.11,0.03,0.17,0.04c0.25,0.06,0.52,0.12,0.79,0.17   c0.09,0.02,0.18,0.04,0.27,0.06c0.33,0.07,0.67,0.13,1.03,0.19c0.08,0.01,0.17,0.03,0.26,0.04c0.31,0.05,0.63,0.1,0.97,0.15   c0.11,0.02,0.21,0.03,0.31,0.05c0.4,0.06,0.82,0.11,1.26,0.17c0.12,0.01,0.25,0.03,0.37,0.04c0.37,0.04,0.75,0.08,1.15,0.12   c0.13,0.01,0.25,0.03,0.38,0.04c0.03,0,0.06,0.01,0.09,0.01c-0.08,0.18-0.14,0.35-0.2,0.52c-0.02,0.05-0.03,0.1-0.05,0.15   c-0.08,0.27-0.14,0.54-0.17,0.8c-0.01,0.09-0.03,0.17-0.03,0.26c-0.01,0.12-0.01,0.24,0,0.35c0,0.13,0.02,0.27,0.04,0.39   c0.01,0.08,0.02,0.16,0.03,0.23c0.05,0.2,0.12,0.38,0.2,0.56c0.03,0.05,0.05,0.11,0.08,0.16c0.11,0.18,0.23,0.36,0.38,0.51   c0.49,0.49,1.17,0.75,1.96,0.75c0.95,0,2.02-0.38,3.03-1.05c-0.49,1.58-0.66,3.36-0.45,4.53c0.3,1.68,1.27,2.08,1.82,2.17   c0.06,0.01,0.11,0.01,0.17,0.01c0.48,0,0.91-0.34,1-0.83c0.09-0.54-0.26-1.05-0.81-1.14c-0.08-0.06-0.35-0.58-0.25-1.93   c0.06-0.81,0.24-1.59,0.45-2.27c0.51,1.28,1.41,2.41,2.48,3.03c0.16,0.09,0.33,0.14,0.5,0.14c0.34,0,0.68-0.18,0.86-0.5   c0.28-0.48,0.12-1.09-0.36-1.37c-0.99-0.58-1.79-1.93-1.9-3.17c0.05,0.05,0.09,0.1,0.14,0.15c1.36,1.36,3,2.17,4.4,2.17   c0,0,0,0,0,0c0.2,0,0.39-0.02,0.57-0.05c0.55-0.1,1.02-0.33,1.39-0.7c0.18-0.18,0.31-0.38,0.43-0.59c0.01-0.02,0.02-0.04,0.03-0.06   c0.11-0.22,0.19-0.46,0.23-0.71c0-0.01,0-0.03,0.01-0.04c0.04-0.26,0.06-0.53,0.04-0.82c0-0.02-0.01-0.04-0.01-0.06   c-0.02-0.26-0.07-0.53-0.14-0.8c-0.01-0.03-0.01-0.06-0.02-0.09c-0.01-0.04-0.03-0.09-0.05-0.13c-0.05-0.15-0.1-0.3-0.16-0.45   c0.1-0.01,0.2-0.02,0.3-0.02c0.16-0.01,0.32-0.02,0.48-0.04c0.5-0.04,0.99-0.08,1.46-0.13c0.08-0.01,0.17-0.01,0.25-0.02   c0.53-0.05,1.03-0.11,1.52-0.17c0.12-0.02,0.24-0.03,0.36-0.05c0.45-0.06,0.89-0.12,1.3-0.18c0.03,0,0.06-0.01,0.09-0.01   c0.44-0.07,0.85-0.14,1.25-0.22c0.09-0.02,0.18-0.03,0.27-0.05c0.78-0.15,1.48-0.31,2.1-0.46c0.06-0.02,0.13-0.03,0.19-0.05   c0.6-0.16,1.13-0.32,1.59-0.47c0.05-0.02,0.09-0.03,0.14-0.05c0.22-0.07,0.42-0.15,0.61-0.22c0.01,0,0.02-0.01,0.03-0.01   c0.17-0.07,0.33-0.13,0.47-0.19c0.04-0.02,0.08-0.03,0.11-0.05c0.03-0.01,0.06-0.02,0.08-0.03l8.43,20.61   C56.94,29.8,52.18,37.39,40.77,38.01z"/></g><text x="0" y="55.04" fill="#000000" font-size="5px" font-weight="bold" font-family="'Helvetica Neue', Helvetica, Arial-Unicode, Arial, Sans-serif">Created by Ben Davis</text><text x="0" y="60.04" fill="#000000" font-size="5px" font-weight="bold" font-family="'Helvetica Neue', Helvetica, Arial-Unicode, Arial, Sans-serif">from the Noun Project</text></svg>