<?xml version="1.0" encoding="UTF-8" standalone="no"?>
<svg width="39.9627mm" height="39.9627mm"
 viewBox="0 0 472 472"
 xmlns="http://www.w3.org/2000/svg" xmlns:xlink="http://www.w3.org/1999/xlink"  version="1.2" baseProfile="tiny">
<desc>Generated with Qt</desc>
<defs>
</defs>
<g fill="none" stroke="black" stroke-width="1" fill-rule="evenodd" stroke-linecap="square" stroke-linejoin="bevel" >

<g fill="none" stroke="#000000" stroke-opacity="1" stroke-width="1" stroke-linecap="square" stroke-linejoin="bevel" transform="matrix(1,0,0,1,0,0)"
font-family="MS Shell Dlg 2" font-size="31.25" font-weight="400" font-style="normal" 
>
</g>

<g fill="none" stroke="#000000" stroke-opacity="1" stroke-width="1" stroke-linecap="square" stroke-linejoin="bevel" transform="matrix(11.8,0,0,11.8,0,0)"
font-family="MS Shell Dlg 2" font-size="31.25" font-weight="400" font-style="normal" 
>
</g>

<g fill="#ffffff" fill-opacity="1" stroke="none" transform="matrix(0.999067,0,0,0.999067,0,0)"
font-family="MS Shell Dlg 2" font-size="31.25" font-weight="400" font-style="normal" 
>
<path vector-effect="none" fill-rule="evenodd" d="M-1,-1 L473.441,-1 L473.441,473.441 L-1,473.441 L-1,-1"/>
</g>

<g fill="none" stroke="#000000" stroke-opacity="1" stroke-width="1" stroke-linecap="square" stroke-linejoin="bevel" transform="matrix(11.8,0,0,11.8,0,0)"
font-family="MS Shell Dlg 2" font-size="31.25" font-weight="400" font-style="normal" 
>
</g>

<g fill="none" stroke="#000000" stroke-opacity="1" stroke-width="1" stroke-linecap="square" stroke-linejoin="bevel" transform="matrix(11.8,0,0,11.8,0,0)"
font-family="MS Shell Dlg 2" font-size="31.25" font-weight="400" font-style="normal" 
>
</g>

<g fill="none" stroke="#000000" stroke-opacity="1" stroke-width="1" stroke-linecap="square" stroke-linejoin="bevel" transform="matrix(11.8,0,0,11.8,0,0)"
font-family="MS Shell Dlg 2" font-size="31.25" font-weight="400" font-style="normal" 
>
</g>

<g fill="#ffffff" fill-opacity="1" stroke="none" transform="matrix(11.8,0,0,11.8,0,0)"
font-family="MS Shell Dlg 2" font-size="31.25" font-weight="400" font-style="normal" 
>
<path vector-effect="non-scaling-stroke" fill-rule="evenodd" d="M0,0 L37.5,0 L37.5,36 L0,36 L0,0"/>
</g>

<g fill="none" stroke="#000000" stroke-opacity="1" stroke-width="1" stroke-linecap="square" stroke-linejoin="bevel" transform="matrix(11.8,0,0,11.8,0,0)"
font-family="MS Shell Dlg 2" font-size="31.25" font-weight="400" font-style="normal" 
>
</g>

<g fill="#ffffff" fill-opacity="1" stroke="#000000" stroke-opacity="1" stroke-width="1" stroke-linecap="square" stroke-linejoin="miter" stroke-miterlimit="2" transform="matrix(11.8,0,0,11.8,0,0)"
font-family="MS Shell Dlg 2" font-size="31.25" font-weight="400" font-style="normal" 
>
<path vector-effect="non-scaling-stroke" fill-rule="evenodd" d="M2,6 L9,6 L9,10 L2,10 L2,6"/>
</g>

<g fill="#ffffff" fill-opacity="1" stroke="#000000" stroke-opacity="1" stroke-width="1" stroke-linecap="square" stroke-linejoin="miter" stroke-miterlimit="2" transform="matrix(1.18,0,0,1.18,0,0)"
font-family="MS Shell Dlg 2" font-size="42" font-weight="400" font-style="normal" 
>
<text fill="#000000" fill-opacity="1" stroke="none" xml:space="preserve" x="110" y="96.5" font-family="MS Shell Dlg 2" font-size="42" font-weight="400" font-style="normal" 
 >Out of Range</text>
</g>

<g fill="#ffffff" fill-opacity="1" stroke="#000000" stroke-opacity="1" stroke-width="1" stroke-linecap="square" stroke-linejoin="miter" stroke-miterlimit="2" transform="matrix(11.8,0,0,11.8,0,0)"
font-family="MS Shell Dlg 2" font-size="31.25" font-weight="400" font-style="normal" 
>
</g>

<g fill="#ffffb2" fill-opacity="1" stroke="#000000" stroke-opacity="1" stroke-width="1" stroke-linecap="square" stroke-linejoin="miter" stroke-miterlimit="2" transform="matrix(11.8,0,0,11.8,0,0)"
font-family="MS Shell Dlg 2" font-size="31.25" font-weight="400" font-style="normal" 
>
<path vector-effect="non-scaling-stroke" fill-rule="evenodd" d="M2,12 L9,12 L9,16 L2,16 L2,12"/>
</g>

<g fill="#ffffb2" fill-opacity="1" stroke="#000000" stroke-opacity="1" stroke-width="1" stroke-linecap="square" stroke-linejoin="miter" stroke-miterlimit="2" transform="matrix(1.18,0,0,1.18,0,0)"
font-family="MS Shell Dlg 2" font-size="42" font-weight="400" font-style="normal" 
>
<text fill="#000000" fill-opacity="1" stroke="none" xml:space="preserve" x="110" y="156.5" font-family="MS Shell Dlg 2" font-size="42" font-weight="400" font-style="normal" 
 >57 - 60</text>
</g>

<g fill="#ffffb2" fill-opacity="1" stroke="#000000" stroke-opacity="1" stroke-width="1" stroke-linecap="square" stroke-linejoin="miter" stroke-miterlimit="2" transform="matrix(11.8,0,0,11.8,0,0)"
font-family="MS Shell Dlg 2" font-size="31.25" font-weight="400" font-style="normal" 
>
</g>

<g fill="#fecc5c" fill-opacity="1" stroke="#000000" stroke-opacity="1" stroke-width="1" stroke-linecap="square" stroke-linejoin="miter" stroke-miterlimit="2" transform="matrix(11.8,0,0,11.8,0,0)"
font-family="MS Shell Dlg 2" font-size="31.25" font-weight="400" font-style="normal" 
>
<path vector-effect="non-scaling-stroke" fill-rule="evenodd" d="M2,18 L9,18 L9,22 L2,22 L2,18"/>
</g>

<g fill="#fecc5c" fill-opacity="1" stroke="#000000" stroke-opacity="1" stroke-width="1" stroke-linecap="square" stroke-linejoin="miter" stroke-miterlimit="2" transform="matrix(1.18,0,0,1.18,0,0)"
font-family="MS Shell Dlg 2" font-size="42" font-weight="400" font-style="normal" 
>
<text fill="#000000" fill-opacity="1" stroke="none" xml:space="preserve" x="110" y="216.5" font-family="MS Shell Dlg 2" font-size="42" font-weight="400" font-style="normal" 
 >60 - 65</text>
</g>

<g fill="#fecc5c" fill-opacity="1" stroke="#000000" stroke-opacity="1" stroke-width="1" stroke-linecap="square" stroke-linejoin="miter" stroke-miterlimit="2" transform="matrix(11.8,0,0,11.8,0,0)"
font-family="MS Shell Dlg 2" font-size="31.25" font-weight="400" font-style="normal" 
>
</g>

<g fill="#fd8d3c" fill-opacity="1" stroke="#000000" stroke-opacity="1" stroke-width="1" stroke-linecap="square" stroke-linejoin="miter" stroke-miterlimit="2" transform="matrix(11.8,0,0,11.8,0,0)"
font-family="MS Shell Dlg 2" font-size="31.25" font-weight="400" font-style="normal" 
>
<path vector-effect="non-scaling-stroke" fill-rule="evenodd" d="M2,24 L9,24 L9,28 L2,28 L2,24"/>
</g>

<g fill="#fd8d3c" fill-opacity="1" stroke="#000000" stroke-opacity="1" stroke-width="1" stroke-linecap="square" stroke-linejoin="miter" stroke-miterlimit="2" transform="matrix(1.18,0,0,1.18,0,0)"
font-family="MS Shell Dlg 2" font-size="42" font-weight="400" font-style="normal" 
>
<text fill="#000000" fill-opacity="1" stroke="none" xml:space="preserve" x="110" y="276.5" font-family="MS Shell Dlg 2" font-size="42" font-weight="400" font-style="normal" 
 >65 - 70</text>
</g>

<g fill="#fd8d3c" fill-opacity="1" stroke="#000000" stroke-opacity="1" stroke-width="1" stroke-linecap="square" stroke-linejoin="miter" stroke-miterlimit="2" transform="matrix(11.8,0,0,11.8,0,0)"
font-family="MS Shell Dlg 2" font-size="31.25" font-weight="400" font-style="normal" 
>
</g>

<g fill="#e31a1c" fill-opacity="1" stroke="#000000" stroke-opacity="1" stroke-width="1" stroke-linecap="square" stroke-linejoin="miter" stroke-miterlimit="2" transform="matrix(11.8,0,0,11.8,0,0)"
font-family="MS Shell Dlg 2" font-size="31.25" font-weight="400" font-style="normal" 
>
<path vector-effect="non-scaling-stroke" fill-rule="evenodd" d="M2,30 L9,30 L9,34 L2,34 L2,30"/>
</g>

<g fill="#e31a1c" fill-opacity="1" stroke="#000000" stroke-opacity="1" stroke-width="1" stroke-linecap="square" stroke-linejoin="miter" stroke-miterlimit="2" transform="matrix(1.18,0,0,1.18,0,0)"
font-family="MS Shell Dlg 2" font-size="42" font-weight="400" font-style="normal" 
>
<text fill="#000000" fill-opacity="1" stroke="none" xml:space="preserve" x="110" y="336.5" font-family="MS Shell Dlg 2" font-size="42" font-weight="400" font-style="normal" 
 >70 - 75</text>
</g>

<g fill="#e31a1c" fill-opacity="1" stroke="#000000" stroke-opacity="1" stroke-width="1" stroke-linecap="square" stroke-linejoin="miter" stroke-miterlimit="2" transform="matrix(11.8,0,0,11.8,0,0)"
font-family="MS Shell Dlg 2" font-size="31.25" font-weight="400" font-style="normal" 
>
</g>

<g fill="none" stroke="#000000" stroke-opacity="1" stroke-width="1" stroke-linecap="square" stroke-linejoin="bevel" transform="matrix(11.8,0,0,11.8,0,0)"
font-family="MS Shell Dlg 2" font-size="31.25" font-weight="400" font-style="normal" 
>
</g>

<g fill="none" stroke="#000000" stroke-opacity="1" stroke-width="1" stroke-linecap="square" stroke-linejoin="bevel" transform="matrix(11.8,0,0,11.8,0,0)"
font-family="MS Shell Dlg 2" font-size="31.25" font-weight="400" font-style="normal" 
>
</g>

<g fill="none" stroke="#000000" stroke-opacity="1" stroke-width="1" stroke-linecap="square" stroke-linejoin="bevel" transform="matrix(11.8,0,0,11.8,0,0)"
font-family="MS Shell Dlg 2" font-size="31.25" font-weight="400" font-style="normal" 
>
</g>

<g fill="none" stroke="#000000" stroke-opacity="1" stroke-width="1" stroke-linecap="square" stroke-linejoin="bevel" transform="matrix(11.8,0,0,11.8,0,0)"
font-family="MS Shell Dlg 2" font-size="31.25" font-weight="400" font-style="normal" 
>
</g>

<g fill="none" stroke="#000000" stroke-opacity="1" stroke-width="1" stroke-linecap="square" stroke-linejoin="bevel" transform="matrix(1,0,0,1,0,0)"
font-family="MS Shell Dlg 2" font-size="31.25" font-weight="400" font-style="normal" 
>
</g>
</g>
</svg>
