<svg xmlns="http://www.w3.org/2000/svg" xmlns:xlink="http://www.w3.org/1999/xlink" version="1.1" x="0px" y="0px" viewBox="0 0 100 125" style="enable-background:new 0 0 100 100;" xml:space="preserve"><path d="M71.0029297,85.265625H76.3125c1.4013672,0,2.5415039-1.140625,2.5415039-2.5419922v-3.666748  c0.5236816-0.5847168,0.8759766-1.3276367,0.9379883-2.1594238l0.5986328-8.0419922  c0.8173828-10.984375-0.4697266-21.8720703-3.8242188-32.3632812l-0.9042969-2.8261719  c-1.7871704-5.5888672-6.3543091-9.762207-12.0268555-11.0737305V21.4375c0-2.8818359-1.9609375-5.3476562-4.769043-5.9951172  l-0.4082031-0.0947266c-5.7719727-1.3320312-11.8740234-1.3320312-17.6459961,0l-0.4077148,0.0947266  c-2.8081055,0.6474609-4.769043,3.1132812-4.769043,5.9951172v1.1574707  c-5.6672363,1.3134766-10.2354736,5.4904785-12.0200195,11.0710449l-0.9042969,2.8261719  c-3.3549805,10.4912109-4.6411133,21.3798828-3.8237305,32.3632812l0.5981445,8.0419922  c0.065979,0.8850098,0.4570312,1.6723633,1.0385742,2.2709961v3.4614258c0,1.4013672,1.1401367,2.5419922,2.5415039,2.5419922  H28.375c1.4013672,0,2.5415039-1.140625,2.5415039-2.5419922V79.048584c0.321228-0.3642578,0.5811768-0.7885742,0.7407227-1.2712402  l0.6420898-1.9418945v2.8950195c0,1.4150391,1.1508789,2.5664062,2.565918,2.5664062h29.4853516  c1.4150391,0,2.565918-1.1513672,2.565918-2.5664062v-3.0808105l0.7036133,2.1286621  c0.1763916,0.5332031,0.4703369,1.0002441,0.8413086,1.3867188v3.5585938  C68.4614258,84.125,69.6015625,85.265625,71.0029297,85.265625z M64.9165039,76.796875H50.609375l0.0007324-1.2314453h14.3063965  V76.796875z M28.9165039,81.109375h-6.3925781v-0.8728027c0.2034912,0.0354004,0.4104614,0.0603027,0.6230469,0.0603027h5.0249023  c0.2550049,0,0.5021973-0.0349121,0.7446289-0.0852051V81.109375z M41.96875,29.0048828h4.4452515l2.2210693,3.5769043  l-0.0023804,4.154541H32.2318726c-0.3913574-1.8459473-1.421875-6.3762207-2.5723267-8.8571777  c1.7590332-1.5793457,3.9016724-2.7263184,6.2694702-3.3027344C36.739563,27.140625,39.1401367,29.0048828,41.96875,29.0048828z   M49.6351929,20.4863281c1.5688477,0,3.1377563,0.1914062,4.663147,0.5742188  c0.2319336,0.0585938,0.4160156,0.21875,0.5058594,0.4404297s0.0688477,0.4658203-0.0571289,0.6689453l-1.0211792,1.6442871  c-2.690979-0.6052246-5.4885254-0.6054688-8.1809082-0.0002441l-1.0210571-1.644043  c-0.1264648-0.203125-0.1469727-0.4472656-0.0576172-0.6689453c0.0898438-0.2216797,0.2744141-0.3818359,0.5063477-0.4404297  C46.4975586,20.6777344,48.0663452,20.4863281,49.6351929,20.4863281z M63.3425293,24.5737305  c2.3713989,0.5759277,4.5151367,1.7246094,6.2754517,3.3049316c-1.1505127,2.480957-2.1810913,7.0117188-2.5725098,8.857666  H50.6326904l0.0023804-4.1540527l2.2216187-3.5773926h4.4455566C60.131897,29.0048828,62.532959,27.1391602,63.3425293,24.5737305z   M67.5449219,71.2753906l-0.3486328,1.6064453c-0.0864258,0.3955078-0.4428711,0.6835938-0.8481445,0.6835938H63.8125v-4.8095703  c0-0.2685547-0.1108398-0.5283203-0.3022461-0.7167969C63.4711914,68.0009766,59.625,64.1240234,59.625,55.796875  c0-0.5527344-0.4477539-1-1-1h-8.0028076l0.0093384-16.0605469h16.4158325l0.4975586,2.2890625  C69.7250977,51.0625,69.7250977,61.2392578,67.5449219,71.2753906z M48.6209717,56.796875l-0.0097046,16.7685547H37.4038086  v-4.4179688c0.9750977-1.1162109,3.9194336-5.0712891,4.1704102-12.3505859H48.6209717z M50.6209717,56.796875h7.0211182  c0.2509766,7.2792969,3.1953125,11.234375,4.1704102,12.3505859v4.4179688H50.6112671L50.6209717,56.796875z M46.6685181,25.623291  c1.9512939-0.3537598,3.9571533-0.354248,5.9326172,0.001709l-2.0991821,3.3798828h0.0005493l-0.8672485,1.3964844  l-0.8671265-1.3964844h0.0004272L46.6685181,25.623291z M31.7255859,41.0253906l0.4975586-2.2890625h16.4083862  L48.6221924,54.796875h-8.0308838c-0.5522461,0-1,0.4472656-1,1c0,8.3271484-3.8461914,12.2041016-3.8818359,12.2392578  c-0.1953125,0.1884766-0.3056641,0.4482422-0.3056641,0.7197266v4.8095703h-2.480957  c-0.4052734,0-0.7617188-0.2880859-0.8481445-0.6835938l-0.3491211-1.6064453  C29.5458984,61.2392578,29.5458984,51.0625,31.7255859,41.0253906z M34.2993164,75.5654297h14.310791L48.609375,76.796875  H34.2993164V75.5654297z M76.8540039,81.109375h-6.3925781v-0.873291c0.2105103,0.0373535,0.4250488,0.060791,0.6445312,0.060791  h5.0249023c0.2471924,0,0.4885864-0.0270996,0.7231445-0.074707V81.109375z M76.3125,83.265625h-5.3095703  c-0.2988281,0-0.5415039-0.2431641-0.5415039-0.5419922V82.109375h6.3925781v0.6142578  C76.8540039,83.0224609,76.6113281,83.265625,76.3125,83.265625z M74.6611328,37.1015625  c3.2763672,10.2451172,4.5332031,20.8789062,3.7353516,31.6054688l-0.5986328,8.0419922  c-0.0649414,0.8681641-0.796875,1.5478516-1.6669922,1.5478516H71.105957c-0.722168,0-1.3603516-0.4609375-1.5874023-1.1464844  l-0.9002075-2.7224121c0.2504883-0.326416,0.440979-0.7028809,0.5320435-1.1223145l0.3486328-1.6064453  c2.2416992-10.3164062,2.2416992-20.7802734,0-31.0976562l-0.6202393-2.8554688  c0.3614502-1.800293,1.2853394-5.8518066,2.2406616-8.2963867c1.1558228,1.402832,2.0628662,3.0288086,2.6373901,4.8256836  L74.6611328,37.1015625z M37.6352539,21.4375c0-1.9453125,1.3232422-3.609375,3.2192383-4.0458984l0.4082031-0.0947266  c5.4765625-1.265625,11.2670898-1.2636719,16.7446289,0l0.4086914,0.0947266h0.0009766  c1.8950195,0.4365234,3.2182617,2.1005859,3.2182617,4.0458984v1.234375c0,2.3896484-1.9438477,4.3330078-4.3330078,4.3330078  h-3.2035522l2.3475952-3.7802734c0.4667969-0.7519531,0.5439453-1.6542969,0.2114258-2.4746094  c-0.3320312-0.8203125-1.0141602-1.4140625-1.8720703-1.6289062c-3.3696289-0.8457031-6.9306641-0.8457031-10.300293,0  c-0.8579102,0.2148438-1.5405273,0.8095703-1.8725586,1.6298828s-0.2548828,1.7216797,0.2119141,2.4736328l2.3474121,3.7802734  H41.96875c-2.3896484,0-4.3334961-1.9433594-4.3334961-4.3330078V21.4375z M24.6162109,37.1015625l0.9042969-2.8261719  c0.5739746-1.7954102,1.4812012-3.4213867,2.6376343-4.824707c0.9516602,2.4362793,1.8728027,6.4697266,2.2373657,8.2783203  l-0.6240234,2.8725586c-2.2412109,10.3173828-2.2412109,20.78125,0,31.0976562l0.3491211,1.6064453  c0.0915527,0.421875,0.2836304,0.8005371,0.536438,1.1279297l-0.8982544,2.7158203  c-0.2270508,0.6865234-0.8647461,1.1474609-1.5869141,1.1474609h-5.0249023c-0.8701172,0-1.6025391-0.6796875-1.6674805-1.5478516  l-0.5981445-8.0419922C20.0830078,57.9804688,21.3398438,47.3466797,24.6162109,37.1015625z M28.375,83.171875h-5.3095703  c-0.2988281,0-0.5415039-0.2431641-0.5415039-0.5419922V82.109375h6.3925781v0.5205078  C28.9165039,82.9287109,28.6738281,83.171875,28.375,83.171875z M34.2993164,78.7304688V77.796875h14.3094482l-0.0008545,1.4990234  c0,0.0004883,0.0001831,0.0004883,0.0001831,0.0009766H34.8652344  C34.5532227,79.296875,34.2993164,79.0429688,34.2993164,78.7304688z M64.3505859,79.296875H50.6079102l0.0008545-1.5h14.3077393  v0.9335938C64.9165039,79.0429688,64.6625977,79.296875,64.3505859,79.296875z"/><text x="0" y="115" fill="#000000" font-size="5px" font-weight="bold" font-family="'Helvetica Neue', Helvetica, Arial-Unicode, Arial, Sans-serif">Created by Nook Fulloption</text><text x="0" y="120" fill="#000000" font-size="5px" font-weight="bold" font-family="'Helvetica Neue', Helvetica, Arial-Unicode, Arial, Sans-serif">from the Noun Project</text></svg>